# AST/ASF file generated using VICON BodyLanguage
# -----------------------------------------------
:version 1.10
:name VICON
:units
  mass 1.0
  length 0.45
  angle deg
:documentation
   .ast/.asf automatically generated from VICON data using
   VICON BodyBuilder and BodyLanguage model FoxedUp or BRILLIANT.MOD
:root
   order TX TY TZ RX RY RZ
   axis XYZ
   position 0 0 0  
   orientation 0 0 0 
:bonedata
  begin
     id 1 
     name lhipjoint
     direction 0.561145 -0.797705 0.220866 
     length 2.46425 
     axis 0 0 0  XYZ
  end
  begin
     id 2 
     name lfemur
     direction 0.34202 -0.939693 0  
     length 7.95556  
     axis 0 0 20  XYZ
    dof rx ry rz
    limits (-160.0 20.0)
           (-70.0 70.0)
           (-60.0 70.0)
  end
  begin
     id 3 
     name ltibia
     direction 0.34202 -0.939693 0   
     length 7.9832   
     axis 0 0 20   XYZ
    dof rx
    limits (-10.0 170.0)
  end
  begin
     id 4 
     name lfoot
     direction 0.0723927 -0.198897 0.977343   
     length 2.23085   
     axis -90 7.62852e-016 20   XYZ
    dof rx rz
    limits (-45.0 90.0)
           (-70.0 20.0)
  end
  begin
     id 5 
     name ltoes
     direction 1.53826e-011 -4.21988e-011 1   
     length 1.12127   
     axis -90 7.62852e-016 20   XYZ
    dof rx
    limits (-90.0 20.0)
  end
  begin
     id 6 
     name rhipjoint
     direction -0.610499 -0.763299 0.21134   
     length 2.57533  
     axis 0 0 0  XYZ 
  end
  begin
     id 7 
     name rfemur
     direction -0.34202 -0.939693 0   
     length 8.65257   
     axis 0 0 -20   XYZ
    dof rx ry rz
    limits (-160.0 20.0)
           (-70.0 70.0)
           (-70.0 60.0)
  end
  begin
     id 8 
     name rtibia
     direction -0.342021 -0.939692 0   
     length 7.37807   
     axis 0 0 -20   XYZ
    dof rx
    limits (-10.0 170.0)
 end
 begin
     id 9 
     name rfoot
     direction -0.0239304 -0.0543852 0.998233   
     length 1.87018  
     axis -90 -7.62852e-016 -20   XYZ
    dof rx rz
    limits (-45.0 90.0)
           (-20.0 70.0)
  end
  begin
     id 10 
     name rtoes
     direction -1.53584e-011 -4.2242e-011 1   
     length 0.951568   
     axis -90 -7.62852e-016 -20   XYZ
    dof rx
    limits (-90.0 20.0)
  end
  begin
     id 11 
     name lowerback
     direction 0.00322089 0.999033 0.0438587   
     length 2.07568   
     axis 0 0 0   XYZ
    dof rx ry rz
    limits (-20.0 45.0)
           (-30.0 30.0)
           (-30.0 30.0)
  end
  begin
     id 12 
     name upperback
     direction -0.00321932 0.999732 -0.0229403   
     length 2.06253   
     axis 0 0 0   XYZ
    dof rx ry rz
    limits (-20.0 45.0)
           (-30.0 30.0)
           (-30.0 30.0)
  end
  begin
     id 13 
     name thorax
     direction -0.00537537 0.998955 -0.0453918   
     length 2.06975   
     axis 0 0 0   XYZ
    dof rx ry rz
    limits (-20.0 45.0)
           (-30.0 30.0)
           (-30.0 30.0)
  end
  begin
     id 14 
     name lowerneck
     direction -0.00013604 0.994111 0.108363   
     length 1.50836   
     axis 0 0 0   XYZ
    dof rx ry rz
    limits (-20.0 45.0)
           (-30.0 30.0)
           (-30.0 30.0)
  end
  begin
     id 15 
     name upperneck
     direction 0.0397262 0.983859 -0.174482   
     length 1.53037   
     axis 0 0 0   XYZ
    dof rx ry rz
    limits (-20.0 45.0)
           (-30.0 30.0)
           (-30.0 30.0)
  end
  begin
     id 16
     name head
     direction 0.0109991 0.997082 -0.0755378  
     length 1.56928  
     axis 0 0 0   XYZ
    dof rx ry rz
    limits (-20.0 45.0)
           (-30.0 30.0)
           (-30.0 30.0)
  end
  begin
     id 17 
     name lclavicle
     direction 0.964749 0.254 -0.068874  
     length 3.26503  
     axis 0 0 0   XYZ
    dof ry rz
    limits (-20.0 10.0)
           (0.0 20.0)
  end
  begin
     id 18 
     name lhumerus
     direction 1 -4.48941e-011 -2.05079e-027   
     length 5.68236   
     axis 180 -30 -90   XYZ
    dof rx ry rz
    limits (-60.0 90.0)
           (-90.0 90.0)
           (-90.0 90.0)
  end
  begin
     id 19
     name lradius
     direction 1 -4.48956e-011 6.2882e-027   
     length 3.17112   
     axis 180 -30 -90   XYZ
    dof rx
    limits (-10.0 170.0)
  end
  begin
     id 20
     name lwrist
     direction 1 -4.49014e-011 1.73219e-026   
     length 1.58556   
     axis -1.04724e-014 90 90   XYZ
    dof ry
    limits (-180.0 0.0)
 end
  begin
     id 21 
     name lhand
     direction 1 -4.49312e-011 3.46438e-026   
     length 0.632691   
     axis -2.21057e-014 90 90   XYZ
    dof rx rz
    limits (-90.0 90.0)
           (-45.0 45.0)
  end
  begin
     id 22 
     name lfingers
     direction 1 -4.48894e-011 6.92876e-026   
     length 0.510091   
     axis -4.42114e-014 90 90   XYZ
    dof rx
    limits (0.0 90.0)
  end
  begin
     id 23
     name lthumb
     direction 0.707107 -6.34705e-011 0.707107   
     length 0.732392   
     axis -90 45 2.85299e-015   XYZ
    dof rx rz
    limits (-45.0 45.0)
           (-45.0 45.0)
  end
  begin
     id 24 
     name rclavicle
     direction -0.954374 0.280496 -0.102435   
     length 3.25419  
     axis 0 0 0   XYZ 
    dof ry rz
    limits (-10.0 20.0)
           (-20.0 0.0)
  end
  begin
     id 25 
     name rhumerus
     direction -1 -4.48994e-011 -1.07204e-017  
     length 5.8712   
     axis 180 30 90   XYZ
    dof rx ry rz
    limits (-90.0 60.0)
           (-90.0 90.0)
           (-90.0 90.0)
  end
  begin
     id 26 
     name rradius
     direction -1 -4.48972e-011 5.89292e-027   
     length 3.37589   
     axis 180 30 90   XYZ
    dof rx
    limits (-10.0 170.0)
  end
  begin
     id 27 
     name rwrist
     direction -1 -4.48942e-011 1.73219e-026   
     length 1.68794   
     axis -1.04724e-014 -90 -90   XYZ
    dof ry
    limits (-180.0 0.0)
  end
  begin
     id 28
     name rhand
     direction -1 -4.48514e-011 3.46438e-026   
     length 0.603257   
     axis -2.21057e-014 -90 -90   XYZ
    dof rx rz
    limits (-90.0 90.0)
           (-45.0 45.0)
  end
  begin
     id 29
     name rfingers
     direction -1 -4.50028e-011 6.92876e-026   
     length 0.486362   
     axis -4.42114e-014 -90 -90   XYZ
    dof rx
    limits (0.0 90.0)
  end
  begin
     id 30
     name rthumb
     direction -0.707107 -6.34926e-011 0.707107   
     length 0.698321   
     axis -90 -45 -2.85299e-015   XYZ
    dof rx rz
    limits (-45.0 45.0)
           (-45.0 45.0)
  end
:hierarchy
  begin
    root lhipjoint rhipjoint lowerback
    lhipjoint lfemur
    lfemur ltibia
    ltibia lfoot
    lfoot ltoes
    rhipjoint rfemur
    rfemur rtibia
    rtibia rfoot
    rfoot rtoes
    lowerback upperback
    upperback thorax
    thorax lowerneck lclavicle rclavicle
    lowerneck upperneck
    upperneck head
    lclavicle lhumerus
    lhumerus lradius
    lradius lwrist
    lwrist lhand lthumb
    lhand lfingers
    rclavicle rhumerus
    rhumerus rradius
    rradius rwrist
    rwrist rhand rthumb
    rhand rfingers
  end

#!OML:ASF I:\Segmentation\Patient Classification 1\Patient 1\Session 1\Patient1.ASF
:FULLY-SPECIFIED
:DEGREES
287
root 0.0855407 18.0727 2.60489 200.392 -84.8084 -187.956
lowerback -9.65759 -0.502737 -2.11737
upperback 1.50918 -0.492868 1.10639
thorax 7.0476 -0.352375 2.28172
lowerneck -16.1523 -1.08661 -4.1651
upperneck 18.1878 -0.987602 2.08113
head 8.35107 -0.582014 1.26346
rclavicle 5.11871e-015 -1.86858e-014
rhumerus -32.468 -11.6038 -78.0151
rradius 27.762
rwrist 20.2371
rhand -19.2053 31.3636
rfingers 7.12502
rthumb 7.10702 1.50297
lclavicle 5.11871e-015 -1.86858e-014
lhumerus -21.7348 -8.0061 88.5187
lradius 28.0373
lwrist 14.9414
lhand -14.4167 34.2253
lfingers 7.12502
lthumb 11.7273 63.877
rfemur -28.8314 -0.261222 17.6197
rtibia 63.2623
rfoot -10.5547 3.60952
rtoes 32.6847
lfemur -34.16 -1.46868 -24.4084
ltibia 39.6433
lfoot -18.1316 3.61554
ltoes -6.1296
288
root 0.00213661 18.0616 2.61415 199.959 -84.8177 -187.585
lowerback -9.65065 -0.561508 -2.13469
upperback 1.53046 -0.573599 1.16563
thorax 7.07189 -0.394553 2.34144
lowerneck -16.0917 -1.06538 -4.12772
upperneck 18.4193 -0.981184 2.08609
head 8.41776 -0.580799 1.26057
rclavicle -2.25124e-014 5.96354e-015
rhumerus -32.7461 -11.9152 -77.6803
rradius 27.5744
rwrist 20.6219
rhand -19.2265 31.2652
rfingers 7.12502
rthumb 7.0865 1.4038
lclavicle -2.25124e-014 5.96354e-015
lhumerus -21.0189 -8.05434 88.3931
lradius 27.8059
lwrist 14.8884
lhand -14.5639 34.2093
lfingers 7.12502
lthumb 11.5853 63.869
rfemur -29.5398 -0.285935 17.7292
rtibia 62.8751
rfoot -10.5057 4.01062
rtoes 32.4327
lfemur -33.9057 -1.43375 -24.4514
ltibia 39.889
lfoot -18.4447 3.44279
ltoes -6.12843
289
root -0.0828837 18.0526 2.62192 198.845 -84.8582 -186.455
lowerback -9.70516 -0.647665 -2.08586
upperback 1.52655 -0.696694 1.20553
thorax 7.10596 -0.454231 2.33645
lowerneck -16.1355 -0.990434 -3.93175
upperneck 18.766 -0.942644 2.10614
head 8.54025 -0.552444 1.2408
rclavicle 4.07509e-015 -1.39149e-014
rhumerus -33.0353 -12.1593 -77.4564
rradius 27.408
rwrist 21.1184
rhand -19.5958 31.679
rfingers 7.12502
rthumb 6.73003 1.80598
lclavicle 4.07509e-015 -1.39149e-014
lhumerus -20.4147 -8.08988 88.1275
lradius 27.7384
lwrist 14.7107
lhand -14.504 34.2902
lfingers 7.12502
lthumb 11.6431 63.9467
rfemur -30.3174 -0.245182 17.8834
rtibia 62.4078
rfoot -10.4232 4.40697
rtoes 32.2798
lfemur -33.7398 -1.36702 -24.4101
ltibia 40.1268
lfoot -18.742 3.22746
ltoes -6.14099
290
root -0.166518 18.0464 2.63012 198.151 -84.8397 -185.724
lowerback -9.747 -0.695168 -2.05599
upperback 1.5033 -0.765507 1.23594
thorax 7.10911 -0.487302 2.3406
lowerneck -16.2234 -0.952127 -3.86935
upperneck 19.2073 -0.928465 2.15273
head 8.70526 -0.543315 1.24965
rclavicle 2.04251e-014 -3.57812e-015
rhumerus -33.3099 -12.3327 -77.2152
rradius 27.2413
rwrist 21.3978
rhand -19.9032 32.1511
rfingers 7.12502
rthumb 6.43323 2.26879
lclavicle 2.04251e-014 -3.57812e-015
lhumerus -19.8432 -8.15621 87.914
lradius 27.7191
lwrist 14.4299
lhand -14.1994 34.587
lfingers 7.12502
lthumb 11.9369 64.2267
rfemur -31.1288 -0.155042 17.9532
rtibia 61.8789
rfoot -10.3327 4.79615
rtoes 32.2315
lfemur -33.5846 -1.21084 -24.4405
ltibia 40.3436
lfoot -19.0223 3.03908
ltoes -6.96663
291
root -0.249149 18.0393 2.63684 198.649 -84.8266 -186.268
lowerback -9.70142 -0.705874 -2.12505
upperback 1.48227 -0.772928 1.24668
thorax 7.06234 -0.4932 2.38999
lowerneck -16.2821 -0.990198 -3.98539
upperneck 19.6912 -0.995094 2.27432
head 8.8846 -0.57835 1.3041
rclavicle 3.75703e-014 -2.3059e-014
rhumerus -33.6628 -12.5286 -76.9193
rradius 27.1299
rwrist 21.2693
rhand -19.4196 32.1367
rfingers 7.12502
rthumb 6.90012 2.26918
lclavicle 3.75703e-014 -2.3059e-014
lhumerus -19.268 -8.44803 87.8429
lradius 27.664
lwrist 14.3352
lhand -14.1135 34.6936
lfingers 7.12502
lthumb 12.0196 64.3285
rfemur -31.8184 -0.141098 17.9382
rtibia 61.2935
rfoot -10.2507 5.13241
rtoes 32.0957
lfemur -33.3137 -1.10878 -24.5827
ltibia 40.5264
lfoot -19.2974 2.83826
ltoes -7.42899
